/* XPM */
static char *result[] = {
/* columns rows colors chars-per-pixel */
"60 60 7 1 ",
"  c #1C1117",
". c #241729",
"X c #D84F3E",
"o c #9D2B4F",
"O c #A98D7B",
"+ c #ECECEC",
"@ c #FDF7ED",
/* pixels */
"++++++++++++++++++++++++++++++++++++++++++++++++++++++++++++",
"++++++++++++++++++++++++++++++++++++++++++++++++++++++++++++",
"++++++++++++++++++++++++++++++++++++++++++++++++++++++++++++",
"++++++++++++++++++++++++++++++++++++++++++++++++++++++++++++",
"++++++++++++++++++++++++++++++++++++++++++++++++++++++++++++",
"++++++++++++++++++++++++++++++++++++++++++++++++++++++++++++",
"++++++++++++++++++++++++++++++++++++++++++++++++++++++++++++",
"++++++++++++++++++++++++++++++++++++++++++++++++++++++++++++",
"++++++++++++++++++++++++++++++++++++++++++++++++++++++++++++",
"++++++++++++++++++++++++++++++++++++++++++++++++++++++++++++",
"++++++++++++++++++++++++         +++++++++++++++++++++++++++",
"++++++++++++++++++++++++         +++++++++++++++++++++++++++",
"++++++++++++++++++++++++         +++++++++++++++++++++++++++",
"+++++++++++++++++++     ooXXXXXXX     ++++++++++++++++++++++",
"+++++++++++++++++++     ooXXXXXXX     ++++++++++++++++++++++",
"+++++++++++++++++  oooooXX@@@XXXXXXXXX  ++++++++++++++++++++",
"+++++++++++++++++  oooooXX@@@XXXXXXXXX  ++++++++++++++++++++",
"++++++++++++++   @@oooXXXXXXXXXXX@@@XXXX   +++++++++++++++++",
"++++++++++++++   @@oooXXXXXXXXXXX@@@XXXX   +++++++++++++++++",
"++++++++++++++   @@oooXXXXXXXXXXX@@@XXXX   +++++++++++++++++",
"++++++++++++  oooooXXXXX@@XXXXXXXXXXXX@@XXX  +++++++++++++++",
"++++++++++++  oooooXXXXX@@XXXXXXXXXXXX@@XXX  +++++++++++++++",
"++++++++++++  ooooo@@@XXXXXXXXX@@XXXXXXXXXX  +++++++++++++++",
"++++++++++++  ooooo@@@XXXXXXXXX@@XXXXXXXXXX  +++++++++++++++",
"++++++++++++++   oooooooXXXXXXXXXXXXXXXX   +++++++++++++++++",
"++++++++++++++   oooooooXXXXXXXXXXXXXXXX   +++++++++++++++++",
"++++++++++++++   oooooooXXXXXXXXXXXXXXXX   +++++++++++++++++",
"+++++++++++++++++                       ++++++++++++++++++++",
"+++++++++++++++++                       ++++++++++++++++++++",
"+++++++++++++++++++   OO@@@@@@@@@@@@  ++++++++++++++++++++++",
"+++++++++++++++++++   OO@@@@@@@@@@@@  ++++++++++++++++++++++",
"+++++++++++++++++++   OO.....@@@@...  ++++++++++++++++++++++",
"+++++++++++++++++++   OO.....@@@@...  ++++++++++++++++++++++",
"+++++++++++++++++++   OO.....@@@@...  ++++++++++++++++++++++",
"+++++++++++++++++++   OO.....@@@@...  ++++++++++++++++++++++",
"+++++++++++++++++++   OO.....@@@@...  ++++++++++++++++++++++",
"+++++++++++++++++++   OO@@@@@@@@@@@@  ++++++++++++++++++++++",
"+++++++++++++++++++   OO@@@@@@@@@@@@  ++++++++++++++++++++++",
"+++++++++++++++++                       ++++++++++++++++++++",
"+++++++++++++++++                       ++++++++++++++++++++",
"+++++++++++++++++                       ++++++++++++++++++++",
"++++++++++++++++++++++++++++++++++++++++++++++++++++++++++++",
"++++++++++++++++++++++++++++++++++++++++++++++++++++++++++++",
"++++++++++++++++++++++++++++++++++++++++++++++++++++++++++++",
"++++++++++++++++++++++++++++++++++++++++++++++++++++++++++++",
"++++++++++++++++++++++++++++++++++++++++++++++++++++++++++++",
"++++++++++++++++++++++++++++++++++++++++++++++++++++++++++++",
"++++++++++++++++++++++++++++++++++++++++++++++++++++++++++++",
"++++++++++++++++++++++++++++++++++++++++++++++++++++++++++++",
"++++++++++++++++++++++++++++++++++++++++++++++++++++++++++++",
"++++++++++++++++++++++++++++++++++++++++++++++++++++++++++++",
"++++++++++++++++++++++++++++++++++++++++++++++++++++++++++++",
"++++++++++++++++++++++++++++++++++++++++++++++++++++++++++++",
"++++++++++++++++++++++++++++++++++++++++++++++++++++++++++++",
"++++++++++++++++++++++++++++++++++++++++++++++++++++++++++++",
"++++++++++++++++++++++++++++++++++++++++++++++++++++++++++++",
"++++++++++++++++++++++++++++++++++++++++++++++++++++++++++++",
"++++++++++++++++++++++++++++++++++++++++++++++++++++++++++++",
"++++++++++++++++++++++++++++++++++++++++++++++++++++++++++++",
"++++++++++++++++++++++++++++++++++++++++++++++++++++++++++++"
};
