/* XPM */
static char *_b76965ad3e54d16955c60ba1420e5feRttHnWjF0U1rAene[] = {
/* columns rows colors chars-per-pixel */
"60 60 12 1 ",
"  c #1C1117",
". c #473777",
"X c #324151",
"o c #8E402D",
"O c #973B6F",
"+ c #F9CA4D",
"@ c #5959BA",
"# c #E1B696",
"$ c #FBCBA6",
"% c gray80",
"& c #ECECEC",
"* c #EEEEEE",
/* pixels */
"&&&&&&&&&&&&&&&&&&&&&&&&&&&&&&&&&&&&&&&&&&&&&&&&&&&&&&&&&&&&",
"&&&&&&&&&&&&&&&&&&&&&&&&&&&&&&&&&&&&&&&&&&&&&&&&&&&&&&&&&&&&",
"&&&&&&&&&&&&&&&&&&&&&&&&&&&&&&&&&&&&&&&&&&&&&&&&&&&&&&&&&&&&",
"&&&&&&&&&&&&&&&&&&&&&&&&&&&&&&&&&&&&&&&&&&&&&&&&&&&&&&&&&&&&",
"&&&&&&&&&&&&&&&&&&&&&&&&&&&&&&&&&&&&&&&&&&&&&&&&&&&&&&&&&&&&",
"&&&&&&&&&&&&&&&&&&&&&&         &&&&&&&&&&&&&&&&&&&&&&&&&&&&&",
"&&&&&&&&&&&&&&&&&&&&&&         &&&&&&&&&&&&&&&&&&&&&&&&&&&&&",
"&&&&&&&&&&&&&&&&&&&&  .....  &&&&&&&&&&&&&&&&&&&&&&&&&&&&&&&",
"&&&&&&&&&&&&&&&&&&&&  .....  &&&&&&&&&&&&&&&&&&&&&&&&&&&&&&&",
"&&&&&&&&&&&&&&&&&&&&  .......  &&&&&&&&&&&&&&&&&&&&&&&&&&&&&",
"&&&&&&&&&&&&&&&&&&&&  .......  &&&&&&&&&&&&&&&&&&&&&&&&&&&&&",
"&&&&&&&&&&&&&&&&&&&&  ..@@@@@  &&&&&&&&&&&&&&&&&&&&&&&&&&&&&",
"&&&&&&&&&&&&&&&&&&&&  ..@@@@@  &&&&&&&&&&&&&&&&&&&&&&&&&&&&&",
"&&&&&&&&&&&&&&&&&&&&  ..+++@@@@  &&&&&&&&&&&&&&&&&&&&&&&&&&&",
"&&&&&&&&&&&&&&&&&&&&  ..+++@@@@  &&&&&&&&&&&&&&&&&&&&&&&&&&&",
"&&&&&&&&&&&&&&&&&&&&  ..+++@@@@  &&&&&&&&&&&&&&&&&&&&&&&&&&&",
"&&&&&&&&&&&&&&&&&&&&  ..@@@@@@@@@    &&&&&&&&&&&&&&&&&&&&&&&",
"&&&&&&&&&&&&&&&&&&&&  ..@@@@@@@@@    &&&&&&&&&&&&&&&&&&&&&&&",
"&&&&&&&&&&&&&&&&&&  ....@@@@@@@@@@@@@  &&&&&&&&&&&&&&&&&&&&&",
"&&&&&&&&&&&&&&&&&&  ....@@@@@@@@@@@@@  &&&&&&&&&&&&&&&&&&&&&",
"&&&&&&&&&&&&&&&&  ....@@+++@@@@@@++@@@@   &&&&&&&&&&&&&&&&&&",
"&&&&&&&&&&&&&&&&  ....@@+++@@@@@@++@@@@   &&&&&&&&&&&&&&&&&&",
"&&&&&&&&&&&&    ....@@@@@@@@@@@@@@@@@@@@@@  &&&&&&&&&&&&&&&&",
"&&&&&&&&&&&&    ....@@@@@@@@@@@@@@@@@@@@@@  &&&&&&&&&&&&&&&&",
"&&&&&&&&&   ....++....@@@@@@@@@@@@@@@@@@@@@@    &&&&&&&&&&&&",
"&&&&&&&&&   ....++....@@@@@@@@@@@@@@@@@@@@@@    &&&&&&&&&&&&",
"&&&&&&&  ...............+++@@@@++@@@@++@@@@@@@@@  &&&&&&&&&&",
"&&&&&&&  ...............+++@@@@++@@@@++@@@@@@@@@  &&&&&&&&&&",
"&&&&&&&  ...............+++@@@@++@@@@++@@@@@@@@@  &&&&&&&&&&",
"&&&&&&&&&           ...............@@           &&&&&&&&&&&&",
"&&&&&&&&&           ...............@@           &&&&&&&&&&&&",
"&&&&&&&&&&&&&&&&  %%                   &&&&&&&&&&&&&&&&&&&&&",
"&&&&&&&&&&&&&&&&  %%                   &&&&&&&&&&&&&&&&&&&&&",
"&&&&&&&&&&&&&&&&  %%**$$OOOOO$$$$$$OO  &&&&&&&&&&&&&&&&&&&&&",
"&&&&&&&&&&&&&&&&  %%**$$OOOOO$$$$$$OO  &&&&&&&&&&&&&&&&&&&&&",
"&&&&&&&&&&&&&&&&  %%**$$OOOOO$$$$$$OO  &&&&&&&&&&&&&&&&&&&&&",
"&&&&&&&&&&&&&&&&  %%**$$OOOOO$$$$$$OO  &&&&&&&&&&&&&&&&&&&&&",
"&&&&&&&&&&&&&&&&  %%****#####$$$$$$##**   &&&&&&&&&&&&&&&&&&",
"&&&&&&&&&&&&&&&&  %%****#####$$$$$$##**   &&&&&&&&&&&&&&&&&&",
"&&&&&&&&&&&&&&&&  %%%%********************  &&&&&&&&&&&&&&&&",
"&&&&&&&&&&&&&&&&  %%%%********************  &&&&&&&&&&&&&&&&",
"&&&&&&&&&&&&&&&&&&  %%%%%%%************   &&&&&&&&&&&&&&&&&&",
"&&&&&&&&&&&&&&&&&&  %%%%%%%************   &&&&&&&&&&&&&&&&&&",
"&&&&&&&&&&&&&&&&&&  %%%%%%%************   &&&&&&&&&&&&&&&&&&",
"&&&&&&&&&&&&&&&&  ..@@  %%%************   &&&&&&&&&&&&&&&&&&",
"&&&&&&&&&&&&&&&&  ..@@  %%%************   &&&&&&&&&&&&&&&&&&",
"&&&&&&&&&&&&&&&&  ..@@@@   %%********  &&&&&&&&&&&&&&&&&&&&&",
"&&&&&&&&&&&&&&&&  ..@@@@   %%********  &&&&&&&&&&&&&&&&&&&&&",
"&&&&&&&&&&&&&&  ..@@@@@@@@@%%%%&*****  &&&&&&&&&&&&&&&&&&&&&",
"&&&&&&&&&&&&&&  ..@@@@@@@@@%%%%&*****  &&&&&&&&&&&&&&&&&&&&&",
"&&&&&&&&&&&&  ooooooooooooooo%%&***XXoo   &&&&&&&&&&&&&&&&&&",
"&&&&&&&&&&&&  ooooooooooooooo%%&***XXoo   &&&&&&&&&&&&&&&&&&",
"&&&&&&&&&&&&  ....@@@@@@@@@@@%%%%**@@@@   &&&&&&&&&&&&&&&&&&",
"&&&&&&&&&&&&  ....@@@@@@@@@@@%%%%**@@@@   &&&&&&&&&&&&&&&&&&",
"&&&&&&&&&&&&                   %%%%       &&&&&&&&&&&&&&&&&&",
"&&&&&&&&&&&&                   %%%%       &&&&&&&&&&&&&&&&&&",
"&&&&&&&&&&&&                   %%%%       &&&&&&&&&&&&&&&&&&",
"&&&&&&&&&&&&&&&&&&&&&&&&&&&&&&&&&&&&&&&&&&&&&&&&&&&&&&&&&&&&",
"&&&&&&&&&&&&&&&&&&&&&&&&&&&&&&&&&&&&&&&&&&&&&&&&&&&&&&&&&&&&",
"&&&&&&&&&&&&&&&&&&&&&&&&&&&&&&&&&&&&&&&&&&&&&&&&&&&&&&&&&&&&"
};
