/* XPM */
static char *result[] = {
/* columns rows colors chars-per-pixel */
"60 60 8 1 ",
"  c #1C1117",
". c #5E2E55",
"X c #D84F3E",
"o c #9D2B4F",
"O c #A98D7B",
"+ c #D2BFAA",
"@ c #FBCBA6",
"# c #ECECEC",
/* pixels */
"############################################################",
"############################################################",
"############################################################",
"############################################################",
"############################################################",
"############################################################",
"############################################################",
"############################################################",
"############################################################",
"############################                ################",
"############################                ################",
"############################                ################",
"#########################   OOOOOOOOOOO+++++     ###########",
"#########################   OOOOOOOOOOO+++++     ###########",
"#######################  OOO+++++++++++++++++++++  #########",
"#######################  OOO+++++++++++++++++++++  #########",
"####################   OO+++++++++++++++++++OO     #########",
"####################   OO+++++++++++++++++++OO     #########",
"####################   OO+++++++++++++++++++OO     #########",
"####################   OO+++++@@@@@@@@@@@@@@OO##############",
"####################   OO+++++@@@@@@@@@@@@@@OO##############",
"################    XXXXXXXX@@@@@@@@@@@@@@@@  ##############",
"################    XXXXXXXX@@@@@@@@@@@@@@@@  ##############",
"################  @@XXXXXXXX@@.....@@@@@@@..  ##############",
"################  @@XXXXXXXX@@.....@@@@@@@..  ##############",
"################  @@XXXXXXXX@@.....@@@@@@@..  ##############",
"##################  XXXXXXXX@@.....@@@@@@@..  ##############",
"##################  XXXXXXXX@@.....@@@@@@@..  ##############",
"####################   OO+++@@@@@@@@@@@@@@@@  ##############",
"####################   OO+++@@@@@@@@@@@@@@@@  ##############",
"####################   OO+++++++@@@@@@@@@@@@  ##############",
"####################   OO+++++++@@@@@@@@@@@@  ##############",
"####################   OO+++++++@@@@@@@@@@@@  ##############",
"##################  OOOOO+++oo++ooooo@@oooooOO   ###########",
"##################  OOOOO+++oo++ooooo@@oooooOO   ###########",
"################  OOOOO++   XXXXXXXXXXXXXXXXOOOOO  #########",
"################  OOOOO++   XXXXXXXXXXXXXXXXOOOOO  #########",
"################            XXXXXXXXXXXXXX         #########",
"################            XXXXXXXXXXXXXX         #########",
"################            XXXXXXXXXXXXXX         #########",
"####################     XXXXXXXXXXXXXXXXX    ##############",
"####################     XXXXXXXXXXXXXXXXX    ##############",
"################  oooooooooooooooooooooooooooo   ###########",
"################  oooooooooooooooooooooooooooo   ###########",
"################  oooooooooooooooooooooooooooo   ###########",
"################                                 ###########",
"################                                 ###########",
"############################################################",
"############################################################",
"############################################################",
"############################################################",
"############################################################",
"############################################################",
"############################################################",
"############################################################",
"############################################################",
"############################################################",
"############################################################",
"############################################################",
"############################################################"
};
