/* XPM */
static char *_4678cdeaf364673d8db1cc3baa448dfEuDMLjroTpiHSu7x[] = {
/* columns rows colors chars-per-pixel */
"60 60 12 1 ",
"  c #1C1117",
". c #3F7250",
"X c #8E402D",
"o c #4FA64C",
"O c #EC8E3B",
"+ c #F9CA4D",
"@ c #5999CA",
"# c #E1B696",
"$ c #D2BFAA",
"% c #FBCBA6",
"& c #ECECEC",
"* c #FDF7ED",
/* pixels */
"&&&&&&&&&&&&&&&&&&&&&&&&&&&&&&&&&&&&&&&&&&&&&&&&&&&&&&&&&&&&",
"&&&&&&&&&&&&&&&&&&&&&&&&&&&&&&&&&&&&&&&&&&&&&&&&&&&&&&&&&&&&",
"&&&&&&&&&&&&&&&&&&&&&&&&&&&&&&&&&&&&&&&&&&&&&&&&&&&&&&&&&&&&",
"&&&&&&&&&&&&&&&&&&&&&&&&&&&&&&&&&&&&&&&&&&&&&&&&&&&&&&&&&&&&",
"&&&&&&&&&&&&&&&&&&&&&&&&&&&&&&&&&&&&&&&&&&&&&&&&&&&&&&&&&&&&",
"&&&&&         &&&&&&&&&&&&&&&&&&&&&&&&&&&&&&&&&&&&&&&&&&&&&&",
"&&&&&         &&&&&&&&&&&&&&&&&&&&&&&&&&&&&&&&&&&&&&&&&&&&&&",
"&&&    **$$$$$  &&&&&&&&&&&&&&&&&&&&&&&&&&&&&&&&&&&&&&&&&&&&",
"&&&    **$$$$$  &&&&&&&&&&&&&&&&&&&&&&&&&&&&&&&&&&&&&&&&&&&&",
"&&&&&&&  *****$$  &&&&&&&&&&&&&&&&&&&&&&&&&&&&&&&&&&&&&&&&&&",
"&&&&&&&  *****$$  &&&&&&&&&&&&&&&&&&&&&&&&&&&&&&&&&&&&&&&&&&",
"&&&&&&&&&     **$$  &&&&&&&&&&&&&&&&&&&&&&&&&&&&&&&&&&&&&&&&",
"&&&&&&&&&     **$$  &&&&&&&&&&&&&&&&&&&&&&&&&&&&&&&&&&&&&&&&",
"&&&&&&&&&&&&&&  $$$$             &&&&&&&&&&&&&&&&&&&&&&&&&&&",
"&&&&&&&&&&&&&&  $$$$             &&&&&&&&&&&&&&&&&&&&&&&&&&&",
"&&&&&&&&&&&&&&  $$$$             &&&&&&&&&&&&&&&&&&&&&&&&&&&",
"&&&&&&&&&&&&&&&&    ....ooooooooo             &&&&&&&&&&&&&&",
"&&&&&&&&&&&&&&&&    ....ooooooooo             &&&&&&&&&&&&&&",
"&&&&&&&&&&&&&&&&  ....oooooooooooooooooooooooo  &&&&&&&&&&&&",
"&&&&&&&&&&&&&&&&  ....oooooooooooooooooooooooo  &&&&&&&&&&&&",
"&&&&&&&&&&&&&&&&  .............ooooooooooooo    &&&&&&&&&&&&",
"&&&&&&&&&&&&&&&&  .............ooooooooooooo    &&&&&&&&&&&&",
"&&&&&&&&&&&&&&&&                            &&&&&&&&&&&&&&&&",
"&&&&&&&&&&&&&&&&                            &&&&&&&&&&&&&&&&",
"&&&&&&&&&&&&&&&&  OOOO#####%%%%%%####+++++  &&&&&&&&&&&&&&&&",
"&&&&&&&&&&&&&&&&  OOOO#####%%%%%%####+++++  &&&&&&&&&&&&&&&&",
"&&&&&&&&&&&&&&&&  OO##%%%%%%%%%%%%%%%     &&&&&&&&&&&&&&&&&&",
"&&&&&&&&&&&&&&&&  OO##%%%%%%%%%%%%%%%     &&&&&&&&&&&&&&&&&&",
"&&&&&&&&&&&&&&&&  OO##%%%%%%%%%%%%%%%     &&&&&&&&&&&&&&&&&&",
"&&&&&&&&&&&&&&&&  OO##%%@@@@@%%%%%%@@  &&&&&&&&&&&&&&&&&&&&&",
"&&&&&&&&&&&&&&&&  OO##%%@@@@@%%%%%%@@  &&&&&&&&&&&&&&&&&&&&&",
"&&&&&&&&&&&&&&&&  OO%%%%@@@@@%%%%%%@@  &&&&&&&&&&&&&&&&&&&&&",
"&&&&&&&&&&&&&&&&  OO%%%%@@@@@%%%%%%@@  &&&&&&&&&&&&&&&&&&&&&",
"&&&&&&&&&&&&&&    OO%%%%#####%%%%%%##  &&&&&&&&&&&&&&&&&&&&&",
"&&&&&&&&&&&&&&    OO%%%%#####%%%%%%##  &&&&&&&&&&&&&&&&&&&&&",
"&&&&&&&&&&&&&&  OOOO##%%OOOOOOO%%OOOO  &&&&&&&&&&&&&&&&&&&&&",
"&&&&&&&&&&&&&&  OOOO##%%OOOOOOO%%OOOO  &&&&&&&&&&&&&&&&&&&&&",
"&&&&&&&&&&&&&&&&    ....%%%%%%%%%%%%%     &&&&&&&&&&&&&&&&&&",
"&&&&&&&&&&&&&&&&    ....%%%%%%%%%%%%%     &&&&&&&&&&&&&&&&&&",
"&&&&&&&&&&&&&&&&  oooooo...%%%%OOOO%%oo   &&&&&&&&&&&&&&&&&&",
"&&&&&&&&&&&&&&&&  oooooo...%%%%OOOO%%oo   &&&&&&&&&&&&&&&&&&",
"&&&&&&&&&&&&&&&&&&  ooooooo..%%%%OO..  &&&&&&&&&&&&&&&&&&&&&",
"&&&&&&&&&&&&&&&&&&  ooooooo..%%%%OO..  &&&&&&&&&&&&&&&&&&&&&",
"&&&&&&&&&&&&&&&&&&  ooooooo..%%%%OO..  &&&&&&&&&&&&&&&&&&&&&",
"&&&&&&&&&&&&&&&&&&  ooooooooo......oo  &&&&&&&&&&&&&&&&&&&&&",
"&&&&&&&&&&&&&&&&&&  ooooooooo......oo  &&&&&&&&&&&&&&&&&&&&&",
"&&&&&&&&&&&&&&&&&&  ooooooooooooo..oo  &&&&&&&&&&&&&&&&&&&&&",
"&&&&&&&&&&&&&&&&&&  ooooooooooooo..oo  &&&&&&&&&&&&&&&&&&&&&",
"&&&&&&&&&&&&&&&&&&  .................  &&&&&&&&&&&&&&&&&&&&&",
"&&&&&&&&&&&&&&&&&&  .................  &&&&&&&&&&&&&&&&&&&&&",
"&&&&&&&&&&&&&&&&&&  XXXX         XXXX  &&&&&&&&&&&&&&&&&&&&&",
"&&&&&&&&&&&&&&&&&&  XXXX         XXXX  &&&&&&&&&&&&&&&&&&&&&",
"&&&&&&&&&&&&&&&&&&      &&&&&&&      &&&&&&&&&&&&&&&&&&&&&&&",
"&&&&&&&&&&&&&&&&&&      &&&&&&&      &&&&&&&&&&&&&&&&&&&&&&&",
"&&&&&&&&&&&&&&&&&&&&&&&&&&&&&&&&&&&&&&&&&&&&&&&&&&&&&&&&&&&&",
"&&&&&&&&&&&&&&&&&&&&&&&&&&&&&&&&&&&&&&&&&&&&&&&&&&&&&&&&&&&&",
"&&&&&&&&&&&&&&&&&&&&&&&&&&&&&&&&&&&&&&&&&&&&&&&&&&&&&&&&&&&&",
"&&&&&&&&&&&&&&&&&&&&&&&&&&&&&&&&&&&&&&&&&&&&&&&&&&&&&&&&&&&&",
"&&&&&&&&&&&&&&&&&&&&&&&&&&&&&&&&&&&&&&&&&&&&&&&&&&&&&&&&&&&&",
"&&&&&&&&&&&&&&&&&&&&&&&&&&&&&&&&&&&&&&&&&&&&&&&&&&&&&&&&&&&&"
};
