/* XPM */
static char *_a42a8f13d4a4658a7fe4bfae4e2a911cw9WEQBJsH6eFQUS[] = {
/* columns rows colors chars-per-pixel */
"60 60 7 1 ",
"  c #1C1117",
". c #483B3A",
"X c #612430",
"o c #324151",
"O c #765C56",
"+ c #4FA64C",
"@ c #ECECEC",
/* pixels */
"@@@@@@@@@@@@@@@@@@@@@@@@@@@@@@@@@@@@@@@@@@@@@@@@@@@@@@@@@@@@",
"@@@@@@@@@@@@@@@@@@@@@@@@@@@@@@@@@@@@@@@@@@@@@@@@@@@@@@@@@@@@",
"@@@@@@@@@@@@@@@@@@@@@@@@@@@@@@@@@@@@@@@@@@@@@@@@@@@@@@@@@@@@",
"@@@@@@@@@@@@@@@@@@@@@@@@@@@@@@@@@@@@@@@@@@@@@@@@@@@@@@@@@@@@",
"@@@@@@@@@@@@@@@@@@@@@@@@@@@@@@@@@@@@@@@@@@@@@@@@@@@@@@@@@@@@",
"@@@@@@@@@@@@@@@     @@@@@@@@@@@@@@     @@@@@@@@@@@@@@@@@@@@@",
"@@@@@@@@@@@@@@@     @@@@@@@@@@@@@@     @@@@@@@@@@@@@@@@@@@@@",
"@@@@@@@@@@@@@@@  ...  @@@@@@@@@   ..   @@@@@@@@@@@@@@@@@@@@@",
"@@@@@@@@@@@@@@@  ...  @@@@@@@@@   ..   @@@@@@@@@@@@@@@@@@@@@",
"@@@@@@@@@@@@@@@  .....         .....   @@@@@@@@@@@@@@@@@@@@@",
"@@@@@@@@@@@@@@@  .....         .....   @@@@@@@@@@@@@@@@@@@@@",
"@@@@@@@@@@@@@@@  .....         .....   @@@@@@@@@@@@@@@@@@@@@",
"@@@@@@@@@@@@@@@  ...OOOOOOOOO..OOOOO   @@@@@@@@@@@@@@@@@@@@@",
"@@@@@@@@@@@@@@@  ...OOOOOOOOO..OOOOO   @@@@@@@@@@@@@@@@@@@@@",
"@@@@@@@@@@@@@@@  ...OO+++++OOOOOOO++   @@@@@@@@@@@@@@@@@@@@@",
"@@@@@@@@@@@@@@@  ...OO+++++OOOOOOO++   @@@@@@@@@@@@@@@@@@@@@",
"@@@@@@@@@@@@@@@  ...OO+++++OOOOOOO++   @@@@@@@@@@@@@@@@@@@@@",
"@@@@@@@@@@@@@@@  ...OO+++++OOOOOOO++   @@@@@@@@@@@@@@@@@@@@@",
"@@@@@@@@@@@@@@@  ...OO+++++OOOOOOO++   @@@@@@@@@@@@@@@@@@@@@",
"@@@@@@@@@@@@@@@  ...OO.....OOOOOOO..   @@@@@@@@@@@@@@@@@@@@@",
"@@@@@@@@@@@@@@@  ...OO.....OOOOOOO..   @@@@@@@@@@@@@@@@@@@@@",
"@@@@@@@@@@@@@@@  ...OOOOOOOOOOOOOOOOOOO  @@@@@@@@@@@@@@@@@@@",
"@@@@@@@@@@@@@@@  ...OOOOOOOOOOOOOOOOOOO  @@@@@@@@@@@@@@@@@@@",
"@@@@@@@@@@@@@@@  ...OOOOOOOOOOOXXXXXOOO  @@@@@@@@@@@@@@@@@@@",
"@@@@@@@@@@@@@@@  ...OOOOOOOOOOOXXXXXOOO  @@@@@@@@@@@@@@@@@@@",
"@@@@@@@@@@@@@@@  ...OOOOOOOOOOOXXXXXOOO  @@@@@@@@@@@@@@@@@@@",
"@@@@@@@@@@@@@@@  ...OOOOOOOOOOOOOOOOOOO  @@@@@@@@@@@@@@@@@@@",
"@@@@@@@@@@@@@@@  ...OOOOOOOOOOOOOOOOOOO  @@@@@@@@@@@@@@@@@@@",
"@@@       @@@@@  ...OOOO   ............  @@@@@@@@@@@@@@@@@@@",
"@@@       @@@@@  ...OOOO   ............  @@@@@@@@@@@@@@@@@@@",
"@@@       @@@@@  ...OOOO   ............  @@@@@@@@@@@@@@@@@@@",
"@@@   ....   @@  ...OOOOOOO            @@@@@@@@@@@@@@@@@@@@@",
"@@@   ....   @@  ...OOOOOOO            @@@@@@@@@@@@@@@@@@@@@",
"@@@   OO.....    ...OOOOOOOOOOOOOO..   @@@@@@@@@@@@@@@@@@@@@",
"@@@   OO.....    ...OOOOOOOOOOOOOO..   @@@@@@@@@@@@@@@@@@@@@",
"@@@   OOOOOOO..  .....OOOOOOOOOOOO..   @@@@@@@@@@@@@@@@@@@@@",
"@@@   OOOOOOO..  .....OOOOOOOOOOOO..   @@@@@@@@@@@@@@@@@@@@@",
"@@@   OOOOOOO..  .....OOOOOOOOOOOO..   @@@@@@@@@@@@@@@@@@@@@",
"@@@@@@         oooooooooooooooooooooooo  @@@@@@@@@@@@@@@@@@@",
"@@@@@@         oooooooooooooooooooooooo  @@@@@@@@@@@@@@@@@@@",
"@@@@@@@@@@@@@                            @@@@@@@@@@@@@@@@@@@",
"@@@@@@@@@@@@@                            @@@@@@@@@@@@@@@@@@@",
"@@@@@@@@@@@@@@@@@@@@@@@@@@@@@@@@@@@@@@@@@@@@@@@@@@@@@@@@@@@@",
"@@@@@@@@@@@@@@@@@@@@@@@@@@@@@@@@@@@@@@@@@@@@@@@@@@@@@@@@@@@@",
"@@@@@@@@@@@@@@@@@@@@@@@@@@@@@@@@@@@@@@@@@@@@@@@@@@@@@@@@@@@@",
"@@@@@@@@@@@@@@@@@@@@@@@@@@@@@@@@@@@@@@@@@@@@@@@@@@@@@@@@@@@@",
"@@@@@@@@@@@@@@@@@@@@@@@@@@@@@@@@@@@@@@@@@@@@@@@@@@@@@@@@@@@@",
"@@@@@@@@@@@@@@@@@@@@@@@@@@@@@@@@@@@@@@@@@@@@@@@@@@@@@@@@@@@@",
"@@@@@@@@@@@@@@@@@@@@@@@@@@@@@@@@@@@@@@@@@@@@@@@@@@@@@@@@@@@@",
"@@@@@@@@@@@@@@@@@@@@@@@@@@@@@@@@@@@@@@@@@@@@@@@@@@@@@@@@@@@@",
"@@@@@@@@@@@@@@@@@@@@@@@@@@@@@@@@@@@@@@@@@@@@@@@@@@@@@@@@@@@@",
"@@@@@@@@@@@@@@@@@@@@@@@@@@@@@@@@@@@@@@@@@@@@@@@@@@@@@@@@@@@@",
"@@@@@@@@@@@@@@@@@@@@@@@@@@@@@@@@@@@@@@@@@@@@@@@@@@@@@@@@@@@@",
"@@@@@@@@@@@@@@@@@@@@@@@@@@@@@@@@@@@@@@@@@@@@@@@@@@@@@@@@@@@@",
"@@@@@@@@@@@@@@@@@@@@@@@@@@@@@@@@@@@@@@@@@@@@@@@@@@@@@@@@@@@@",
"@@@@@@@@@@@@@@@@@@@@@@@@@@@@@@@@@@@@@@@@@@@@@@@@@@@@@@@@@@@@",
"@@@@@@@@@@@@@@@@@@@@@@@@@@@@@@@@@@@@@@@@@@@@@@@@@@@@@@@@@@@@",
"@@@@@@@@@@@@@@@@@@@@@@@@@@@@@@@@@@@@@@@@@@@@@@@@@@@@@@@@@@@@",
"@@@@@@@@@@@@@@@@@@@@@@@@@@@@@@@@@@@@@@@@@@@@@@@@@@@@@@@@@@@@",
"@@@@@@@@@@@@@@@@@@@@@@@@@@@@@@@@@@@@@@@@@@@@@@@@@@@@@@@@@@@@"
};
