/* XPM */
static char *_2d7437153034ff0ea69aa0fa88d56047yc0xGrsc60bUv49[] = {
/* columns rows colors chars-per-pixel */
"60 60 9 1 ",
"  c #1C1117",
". c #241729",
"X c #483B3A",
"o c #3F7250",
"O c #765C56",
"+ c #4FA64C",
"@ c #A98D7B",
"# c #99D84B",
"$ c #ECECEC",
/* pixels */
"$$$$$$$$$$$$$$$$$$$$$$$$$$$$$$$$$$$$$$$$$$$$$$$$$$$$$$$$$$$$",
"$$$$$$$$$$$$$$$$$$$$$$$$$$$$$$$$$$$$$$$$$$$$$$$$$$$$$$$$$$$$",
"$$$$$$$$$$$$$$$$$$$$$$$$      $$$$$$$$$$$$$$$$$$$$$$$$$$$$$$",
"$$$$$$$$$$$$$$$$$$$$$$$$      $$$$$$$$$$$$$$$$$$$$$$$$$$$$$$",
"$$$$$$$$$$$$$$$$$$$$    oooooo    $$       $$$$$$$$$$$$$$$$$",
"$$$$$$$$$$$$$$$$$$$$    oooooo    $$       $$$$$$$$$$$$$$$$$",
"$$$$$$$$$$$$$$$$$$  oooooo++oooooo  ooooooo    $$$$$$$$$$$$$",
"$$$$$$$$$$$$$$$$$$  oooooo++oooooo  ooooooo    $$$$$$$$$$$$$",
"$$$$$$$$$$$$$$$$$$  oo++++++++++oooooo+++oooooo  $$$$$$$$$$$",
"$$$$$$$$$$$$$$$$$$  oo++++++++++oooooo+++oooooo  $$$$$$$$$$$",
"$$$$$$$$$$$$$$$$  oooo++oo++##+++++++++++##++oo  $$$$$$$$$$$",
"$$$$$$$$$$$$$$$$  oooo++oo++##+++++++++++##++oo  $$$$$$$$$$$",
"$$$$$$$$$$$$    oooo++++++++++++oo##ooooo++++oooo  $$$$$$$$$",
"$$$$$$$$$$$$    oooo++++++++++++oo##ooooo++++oooo  $$$$$$$$$",
"$$$$$$$$$$  oooooo++##++oo++++oo+++++++++++++++oo  $$$$$$$$$",
"$$$$$$$$$$  oooooo++##++oo++++oo+++++++++++++++oo  $$$$$$$$$",
"$$$$$$$$  oooo++++++++++##++++++##++++###++##oooo  $$$$$$$$$",
"$$$$$$$$  oooo++++++++++##++++++##++++###++##oooo  $$$$$$$$$",
"$$$$$$  oooo++++##oo++++++    ++++oo++   ++++oo  $$$$$$$$$$$",
"$$$$$$  oooo++++##oo++++++    ++++oo++   ++++oo  $$$$$$$$$$$",
"$$$$$$  oo++++  ++++++oooo    ##++++++   XX++oo  $$$$$$$$$$$",
"$$$$$$  oo++++  ++++++oooo    ##++++++   XX++oo  $$$$$$$$$$$",
"$$$$  oooo++++++++++++##++++++++++++##   ++##oooo  $$$$$$$$$",
"$$$$  oooo++++++++++++##++++++++++++##   ++##oooo  $$$$$$$$$",
"$$$$  oo++##++  XX##++++oo    oo++oo++XXX++++++oo  $$$$$$$$$",
"$$$$  oo++##++  XX##++++oo    oo++oo++XXX++++++oo  $$$$$$$$$",
"$$$$  oooo++++oo  ++++  oo    oo  +++++++##++oooo  $$$$$$$$$",
"$$$$  oooo++++oo  ++++  oo    oo  +++++++##++oooo  $$$$$$$$$",
"$$$$$$  oo++++++++++XX      OO    ##++ooo++++oo  $$$$$$$$$$$",
"$$$$$$  oo++++++++++XX      OO    ##++ooo++++oo  $$$$$$$$$$$",
"$$$$$$  oooooo++oo  XXXX  OOOO  OOOO  +++oooooo  $$$$$$$$$$$",
"$$$$$$  oooooo++oo  XXXX  OOOO  OOOO  +++oooooo  $$$$$$$$$$$",
"$$$$$$$$    oooooo    XXOOOOOOOOOO@@  ooooo    $$$$$$$$$$$$$",
"$$$$$$$$    oooooo    XXOOOOOOOOOO@@  ooooo    $$$$$$$$$$$$$",
"$$$$$$$$$$$$      $$  XXOOOOOOOOOO         $$$$$$$$$$$$$$$$$",
"$$$$$$$$$$$$      $$  XXOOOOOOOOOO         $$$$$$$$$$$$$$$$$",
"$$$$$$$$$$$$$$$$$$$$  XX@@@@OOOO@@  $$$$$$$$$$$$$$$$$$$$$$$$",
"$$$$$$$$$$$$$$$$$$$$  XX@@@@OOOO@@  $$$$$$$$$$$$$$$$$$$$$$$$",
"$$$$$$$$$$$$$$$$$$$$  XX....OOOO..  $$$$$$$$$$$$$$$$$$$$$$$$",
"$$$$$$$$$$$$$$$$$$$$  XX....OOOO..  $$$$$$$$$$$$$$$$$$$$$$$$",
"$$$$$$$$$$$$$$$$$$$$  XX....OOOO..  $$$$$$$$$$$$$$$$$$$$$$$$",
"$$$$$$$$$$$$$$$$$$$$  XX....OOOO..  $$$$$$$$$$$$$$$$$$$$$$$$",
"$$$$$$$$$$$$$$$$$$$$  XXXXXXOOOOXX  $$$$$$$$$$$$$$$$$$$$$$$$",
"$$$$$$$$$$$$$$$$$$$$  XXXXXXOOOOXX  $$$$$$$$$$$$$$$$$$$$$$$$",
"$$$$$$$$$$$$$$$$$$$$  XXOOOOOOOOOO  $$$$$$$$$$$$$$$$$$$$$$$$",
"$$$$$$$$$$$$$$$$$$$$  XXOOOOOOOOOO  $$$$$$$$$$$$$$$$$$$$$$$$",
"$$$$$$$$$$$$$$$$$$$$$$  XXOOOO@@  $$$$$$$$$$$$$$$$$$$$$$$$$$",
"$$$$$$$$$$$$$$$$$$$$$$  XXOOOO@@  $$$$$$$$$$$$$$$$$$$$$$$$$$",
"$$$$$$$$$$$$$$$$$$$$    XXOOOO@@    $$$$$$$$$$$$$$$$$$$$$$$$",
"$$$$$$$$$$$$$$$$$$$$    XXOOOO@@    $$$$$$$$$$$$$$$$$$$$$$$$",
"$$$$$$$$$$$$$$$$$$    XXOOOOOOOOOO    $$$$$$$$$$$$$$$$$$$$$$",
"$$$$$$$$$$$$$$$$$$    XXOOOOOOOOOO    $$$$$$$$$$$$$$$$$$$$$$",
"$$$$$$$$$$$$$$$$  XXXXOOOOOOOOOOOOOOOO   $$$$$$$$$$$$$$$$$$$",
"$$$$$$$$$$$$$$$$  XXXXOOOOOOOOOOOOOOOO   $$$$$$$$$$$$$$$$$$$",
"$$$$$$$$$$$$$$$$                         $$$$$$$$$$$$$$$$$$$",
"$$$$$$$$$$$$$$$$                         $$$$$$$$$$$$$$$$$$$",
"$$$$$$$$$$$$$$$$                         $$$$$$$$$$$$$$$$$$$",
"$$$$$$$$$$$$$$$$$$$$$$$$$$$$$$$$$$$$$$$$$$$$$$$$$$$$$$$$$$$$",
"$$$$$$$$$$$$$$$$$$$$$$$$$$$$$$$$$$$$$$$$$$$$$$$$$$$$$$$$$$$$",
"$$$$$$$$$$$$$$$$$$$$$$$$$$$$$$$$$$$$$$$$$$$$$$$$$$$$$$$$$$$$"
};
